<svg width="65" height="65" viewBox="0 0 65 65" fill="none" xmlns="http://www.w3.org/2000/svg">
    <path fill-rule="evenodd" clip-rule="evenodd"
        d="M32.7485 1.53995C32.7485 1.53995 51.0659 0.717852 60.777 19.1294H31.19C31.19 19.1294 25.6066 18.9496 20.8367 25.7233C19.4665 28.5664 17.9936 31.4951 19.6464 37.267C17.2657 33.2335 7.00659 15.37 7.00659 15.37C7.00659 15.37 14.2428 2.26785 32.7485 1.53995V1.53995V1.53995Z"
        fill="#EF3F36" />
    <path fill-rule="evenodd" clip-rule="evenodd"
        d="M59.827 48.2796C59.827 48.2796 51.3748 64.5588 30.5825 63.7538C33.1516 59.3094 45.3803 38.1318 45.3803 38.1318C45.3803 38.1318 48.3347 33.3876 44.8493 25.8688C43.0767 23.2569 41.2698 20.5252 35.4466 19.0694C40.1308 19.0266 60.7261 19.0694 60.7261 19.0694C60.7261 19.0694 68.4419 31.889 59.827 48.2796V48.2796V48.2796Z"
        fill="#FCD900" />
    <path fill-rule="evenodd" clip-rule="evenodd"
        d="M5.79901 48.4082C5.79901 48.4082 -4.07473 32.951 7.02359 15.3444C9.58409 19.7889 21.8128 40.9665 21.8128 40.9665C21.8128 40.9665 24.4504 45.8991 32.697 46.6355C35.8398 46.4043 39.1111 46.2074 43.2901 41.8999C40.9865 45.9761 30.6504 63.7883 30.6504 63.7883C30.6504 63.7883 15.6813 64.0623 5.79901 48.4082V48.4082V48.4082Z"
        fill="#61BC5B" />
    <path fill-rule="evenodd" clip-rule="evenodd"
        d="M30.5737 63.9082L34.7356 46.5413C34.7356 46.5413 39.3085 46.1817 43.145 41.977C40.7643 46.1646 30.5737 63.9082 30.5737 63.9082V63.9082V63.9082Z"
        fill="#5AB055" />
    <path fill-rule="evenodd" clip-rule="evenodd"
        d="M18.8081 32.9167C18.8081 25.2609 25.0167 19.0523 32.6724 19.0523C40.3282 19.0523 46.5368 25.2609 46.5368 32.9167C46.5368 40.5724 40.3282 46.781 32.6724 46.781C25.0167 46.7724 18.8081 40.5724 18.8081 32.9167V32.9167V32.9167Z"
        fill="white" />
    <path fill-rule="evenodd" clip-rule="evenodd"
        d="M21.1284 32.9168C21.1284 26.5455 26.2922 21.3732 32.672 21.3732C39.0433 21.3732 44.2157 26.537 44.2157 32.9168C44.2157 39.2881 39.0519 44.4604 32.672 44.4604C26.3008 44.4604 21.1284 39.2881 21.1284 32.9168V32.9168V32.9168Z"
        fill="url(#paint0_linear_133_321)" />
    <path fill-rule="evenodd" clip-rule="evenodd"
        d="M60.717 19.0779L43.5814 24.1047C43.5814 24.1047 40.9952 20.3111 35.4375 19.0779C40.2588 19.0523 60.717 19.0779 60.717 19.0779V19.0779V19.0779Z"
        fill="#EACA05" />
    <path fill-rule="evenodd" clip-rule="evenodd"
        d="M19.3124 36.6333C16.906 32.4629 7.00659 15.3701 7.00659 15.3701L19.6977 27.9242C19.6977 27.9242 18.3961 30.6046 18.8842 34.4411L19.3124 36.6333V36.6333V36.6333Z"
        fill="#DF3A32" />
    <defs>
        <linearGradient id="paint0_linear_133_321" x1="21.5568" y1="21.5361" x2="21.5568" y2="43.7655"
            gradientUnits="userSpaceOnUse">
            <stop stop-color="#86BBE5" />
            <stop offset="1" stop-color="#1072BA" />
        </linearGradient>
    </defs>
</svg>