<svg width="65" height="65" viewBox="0 0 65 65" fill="none" xmlns="http://www.w3.org/2000/svg">
    <g clip-path="url(#clip0_133_314)">
        <path
            d="M21.6122 64.2813C27.5002 64.2813 32.2789 59.5026 32.2789 53.6146V42.9479H21.6122C15.7242 42.9479 10.9456 47.7266 10.9456 53.6146C10.9456 59.5026 15.7242 64.2813 21.6122 64.2813Z"
            fill="#0ACF83" />
        <path
            d="M10.9456 32.2815C10.9456 26.3935 15.7242 21.6148 21.6122 21.6148H32.2789V42.9481H21.6122C15.7242 42.9481 10.9456 38.1695 10.9456 32.2815Z"
            fill="#A259FF" />
        <path
            d="M10.9456 10.948C10.9456 5.06004 15.7242 0.281372 21.6122 0.281372H32.2789V21.6147H21.6122C15.7242 21.6147 10.9456 16.836 10.9456 10.948Z"
            fill="#F24E1E" />
        <path
            d="M32.2793 0.281372H42.946C48.834 0.281372 53.6126 5.06004 53.6126 10.948C53.6126 16.836 48.834 21.6147 42.946 21.6147H32.2793V0.281372Z"
            fill="#FF7262" />
        <path
            d="M53.6126 32.2815C53.6126 38.1695 48.834 42.9481 42.946 42.9481C37.058 42.9481 32.2793 38.1695 32.2793 32.2815C32.2793 26.3935 37.058 21.6148 42.946 21.6148C48.834 21.6148 53.6126 26.3935 53.6126 32.2815Z"
            fill="#1ABCFE" />
    </g>
    <defs>
        <clipPath id="clip0_133_314">
            <rect width="64" height="64" fill="white" transform="translate(0.195557 0.281372)" />
        </clipPath>
    </defs>
</svg>