<svg width="64" height="65" viewBox="0 0 64 65" fill="none" xmlns="http://www.w3.org/2000/svg">
    <path fill-rule="evenodd" clip-rule="evenodd"
        d="M62.7926 29.9303L34.8493 1.98851C33.2412 0.378993 30.631 0.378993 29.0209 1.98851L23.2184 7.79105L30.5791 15.1518C32.2897 14.5739 34.251 14.9615 35.6147 16.3253C36.9847 17.6974 37.3695 19.6756 36.7776 21.3919L43.8714 28.4858C45.5876 27.8945 47.5678 28.2773 48.9386 29.6501C50.8542 31.5651 50.8542 34.669 48.9386 36.5854C47.0222 38.5017 43.9184 38.5017 42.0014 36.5854C40.5604 35.143 40.2044 33.0265 40.934 31.2512L34.3184 24.6355L34.3177 42.0452C34.7847 42.2769 35.2257 42.5852 35.6147 42.9729C37.5303 44.8878 37.5303 47.9917 35.6147 49.9095C33.6983 51.8252 30.5931 51.8252 28.6796 49.9095C26.7639 47.9917 26.7639 44.8878 28.6796 42.9729C29.1529 42.5003 29.7006 42.1428 30.2849 41.9027V24.3307C29.7006 24.092 29.1536 23.7366 28.6796 23.2605C27.2281 21.8111 26.8791 19.6812 27.6227 17.899L20.3674 10.6421L1.2074 29.8011C-0.402791 31.412 -0.402791 34.0222 1.2074 35.6317L29.1508 63.5742C30.7596 65.1837 33.369 65.1837 34.9799 63.5742L62.7926 35.7616C64.4021 34.1514 64.4021 31.5398 62.7926 29.9303Z"
        fill="#DE4C36" />
</svg>