<svg width="64" height="65" viewBox="0 0 64 65" fill="none" xmlns="http://www.w3.org/2000/svg">
    <path fill-rule="evenodd" clip-rule="evenodd"
        d="M31.9892 0.781372C24.3923 0.785436 17.0445 3.55987 11.2596 8.60858C5.47479 13.6573 1.63016 20.6511 0.413173 28.3393C-0.803812 36.0276 0.686199 43.909 4.61681 50.5742C8.54742 57.2395 14.6623 62.254 21.868 64.7211C23.4577 65.0254 24.0565 64.0094 24.0565 63.1456C24.0565 62.2818 24.0247 59.7772 24.0141 57.039C15.1118 59.022 13.2307 53.1654 13.2307 53.1654C11.7787 49.3623 9.6803 48.3627 9.6803 48.3627C6.77644 46.3308 9.89758 46.3688 9.89758 46.3688C13.1141 46.6024 14.8045 49.7535 14.8045 49.7535C17.6553 54.7681 22.292 53.3175 24.1148 52.4699C24.401 50.3457 25.2329 48.9005 26.1497 48.0802C19.0384 47.2544 11.5668 44.4401 11.5668 31.8684C11.5227 28.608 12.7027 25.455 14.8628 23.0617C14.5342 22.2359 13.4373 18.9001 15.1754 14.369C15.1754 14.369 17.862 13.4889 23.9771 17.732C29.2222 16.2614 34.7562 16.2614 40.0013 17.732C46.111 13.4889 48.7923 14.369 48.7923 14.369C50.5357 18.8892 49.4388 22.225 49.1103 23.0617C51.2771 25.4554 52.4597 28.6139 52.4116 31.8793C52.4116 44.4782 44.9241 47.2544 37.8022 48.0639C38.9468 49.0853 39.9695 51.0791 39.9695 54.1433C39.9695 58.5331 39.9324 62.0644 39.9324 63.1456C39.9324 64.0203 40.51 65.0417 42.1315 64.7211C49.3381 62.2537 55.4535 57.2383 59.3841 50.5719C63.3146 43.9055 64.8039 36.0229 63.5855 28.334C62.3671 20.645 58.5206 13.6512 52.7338 8.60331C46.9471 3.55547 39.5976 0.78286 31.9998 0.781372H31.9892Z"
        fill="#1F2041" />
</svg>