<svg width="65" height="65" viewBox="0 0 65 65" fill="none" xmlns="http://www.w3.org/2000/svg">
    <g clip-path="url(#clip0_133_325)">
        <path fill-rule="evenodd" clip-rule="evenodd" d="M1.14844 1.53137H63.6484V64.0314H1.14844V1.53137Z"
            fill="#F7DF1E" />
        <path fill-rule="evenodd" clip-rule="evenodd"
            d="M17.5816 53.761L22.3646 50.8665C23.2873 52.5025 24.1267 53.8867 26.1401 53.8867C28.07 53.8867 29.2868 53.1318 29.2868 50.1953V30.225H35.1602V50.2783C35.1602 56.3616 31.5943 59.1306 26.3919 59.1306C21.6933 59.1306 18.966 56.6972 17.5815 53.7606"
            fill="#1F2041" />
        <path fill-rule="evenodd" clip-rule="evenodd"
            d="M38.3503 53.1316L43.1327 50.3626C44.3916 52.4186 46.0278 53.9288 48.9225 53.9288C51.3561 53.9288 52.908 52.712 52.908 51.0338C52.908 49.0201 51.3138 48.3068 48.6287 47.1325L47.1608 46.5027C42.9232 44.699 40.1121 42.4335 40.1121 37.6507C40.1121 33.2455 43.4684 29.8891 48.7128 29.8891C52.4468 29.8891 55.1318 31.1898 57.0615 34.5881L52.4884 37.5247C51.4815 35.7208 50.391 35.0078 48.7129 35.0078C46.9928 35.0078 45.9019 36.0985 45.9019 37.5247C45.9019 39.2868 46.9928 40.0002 49.5098 41.0911L50.978 41.7204C55.9706 43.8601 58.7816 46.0415 58.7816 50.9499C58.7816 56.2364 54.6282 59.131 49.0485 59.131C43.5945 59.131 40.0703 56.53 38.3504 53.1316"
            fill="#1F2041" />
    </g>
    <defs>
        <clipPath id="clip0_133_325">
            <rect width="64" height="64" fill="white" transform="translate(0.398438 0.781372)" />
        </clipPath>
    </defs>
</svg>