<svg width="65" height="64" viewBox="0 0 65 64" fill="none" xmlns="http://www.w3.org/2000/svg">
    <g clip-path="url(#clip0_133_328)">
        <mask id="mask0_133_328" style="mask-type:alpha" maskUnits="userSpaceOnUse" x="0" y="0" width="65" height="64">
            <path
                d="M45.6054 63.1827C46.6094 63.5739 47.7545 63.5487 48.768 63.0611L61.8932 56.7456C63.2723 56.0819 64.1494 54.6858 64.1494 53.1546V10.3306C64.1494 8.79931 63.2723 7.40349 61.8932 6.73983L48.768 0.424002C47.4379 -0.215983 45.8813 -0.0592267 44.7141 0.789417C44.5472 0.910649 44.3884 1.04601 44.2394 1.19517L19.1126 24.1188L8.16789 15.8109C7.14904 15.0375 5.72396 15.1008 4.77771 15.9616L1.26738 19.1548C0.109931 20.2076 0.108604 22.0286 1.26452 23.0831L10.7561 31.7425L1.26452 40.4019C0.108604 41.4565 0.109931 43.2774 1.26738 44.3303L4.77771 47.5233C5.72396 48.3842 7.14904 48.4475 8.16789 47.6742L19.1126 39.3662L44.2394 62.2899C44.6369 62.6876 45.1036 62.9872 45.6054 63.1827ZM48.2214 17.2703L29.1559 31.7425L48.2214 46.2147V17.2703Z"
                fill="white" />
        </mask>
        <g mask="url(#mask0_133_328)">
            <path
                d="M61.9321 6.74969L48.7967 0.425165C47.2764 -0.306896 45.4592 0.00190377 44.2659 1.19514L1.26504 40.4019C0.108427 41.4565 0.109757 43.2774 1.26791 44.3303L4.78036 47.5233C5.72721 48.3842 7.15316 48.4475 8.17261 47.6743L59.9556 8.39043C61.6928 7.07253 64.1881 8.31159 64.1881 10.4922V10.3397C64.1881 8.80902 63.3112 7.4137 61.9321 6.74969Z"
                fill="#0065A9" />
            <path
                d="M61.9321 56.7353L48.7967 63.0599C47.2764 63.7918 45.4592 63.483 44.2659 62.2899L1.26504 23.0831C0.108427 22.0285 0.109757 20.2076 1.26791 19.1547L4.78036 15.9616C5.72721 15.1008 7.15316 15.0374 8.17261 15.8108L59.9556 55.0945C61.6928 56.4124 64.1881 55.1734 64.1881 52.9927V53.1454C64.1881 54.6759 63.3112 56.0712 61.9321 56.7353Z"
                fill="#007ACC" />
            <path
                d="M48.7557 63.0649C47.2349 63.7963 45.4177 63.4872 44.2244 62.2939C45.6946 63.7641 48.2088 62.7227 48.2088 60.6433V2.84948C48.2088 0.770095 45.6946 -0.271273 44.2244 1.19908C45.4177 0.00573003 47.2349 -0.303505 48.7557 0.427909L61.8889 6.74374C63.269 7.4074 64.1465 8.80322 64.1465 10.3345V53.1586C64.1465 54.6898 63.269 56.0856 61.8889 56.7493L48.7557 63.0649Z"
                fill="#1F9CF0" />
            <path
                d="M45.6054 63.1818C46.6095 63.5728 47.7545 63.5479 48.7678 63.0603L61.893 56.7445C63.2724 56.0808 64.1495 54.685 64.1495 53.1538V10.3298C64.1495 8.79845 63.2724 7.40262 61.8933 6.73897L48.7678 0.423149C47.438 -0.216838 45.8813 -0.0600815 44.7139 0.788562C44.5473 0.909793 44.3884 1.04515 44.2393 1.19432L19.1126 24.1179L8.16788 15.81C7.14906 15.0366 5.72395 15.1 4.77769 15.9607L1.26738 19.1539C0.109931 20.2068 0.108604 22.0277 1.26452 23.0823L10.7561 31.7417L1.26452 40.4011C0.108604 41.4557 0.109931 43.2766 1.26738 44.3295L4.77769 47.5225C5.72395 48.3834 7.14906 48.4467 8.16788 47.6734L19.1126 39.3654L44.2393 62.2891C44.6367 62.6868 45.1036 62.9864 45.6054 63.1818ZM48.2214 17.2695L29.1559 31.7417L48.2214 46.2139V17.2695Z"
                fill="url(#paint0_linear_133_328)" fill-opacity="0.25" />
        </g>
    </g>
    <defs>
        <linearGradient id="paint0_linear_133_328" x1="32.274" y1="0.0305173" x2="32.274" y2="63.4528"
            gradientUnits="userSpaceOnUse">
            <stop stop-color="white" />
            <stop offset="1" stop-color="white" stop-opacity="0" />
        </linearGradient>
        <clipPath id="clip0_133_328">
            <rect width="64" height="63.5" fill="white" transform="translate(0.398438 0.0313721)" />
        </clipPath>
    </defs>
</svg>